<?xml version="1.0" encoding="utf-8"?>
<!-- Generator: Adobe Illustrator 28.0.0, SVG Export Plug-In . SVG Version: 6.00 Build 0)  -->
<svg version="1.1" id="Ebene_1" xmlns:serif="http://www.serif.com/"
	 xmlns="http://www.w3.org/2000/svg" xmlns:xlink="http://www.w3.org/1999/xlink" x="0px" y="0px" viewBox="0 0 2480 1748"
	 style="enable-background:new 0 0 2480 1748;" xml:space="preserve">
<style type="text/css">
	.st0{fill-rule:evenodd;clip-rule:evenodd;}
	.st1{font-family:'ErasITC-Medium';}
	.st2{font-size:188.5131px;}
</style>
<g id="Shutter">
	<path class="st0" d="M863.3,1618.7v-418.8l341.4,197.1l-1.1,1.9l395.5,228.5c-108.8,52-230.6,81.2-359.1,81.2
		C1104.5,1708.5,976.5,1676.1,863.3,1618.7z"/>
	<path class="st0" d="M2072.1,937.1c-20,266.7-165.6,498.7-377.8,636.8l-362.6-209.5l203.4-117.4l0.1,0.2L2072.1,937.1z"/>
	<path class="st0" d="M769.5,1563c-207.7-142.1-347.9-375.6-362.6-642.4l362.6-209.9V1563z"/>
	<path class="st0" d="M1710.4,184.8c207.9,142.2,348.3,376.1,362.8,643.2l-362.7,209.4V602.3l0,0L1710.4,184.8z"/>
	<path class="st0" d="M783.2,175.8L1146,384.9l-265,153l-0.1-0.1l-92.8,53.7l-18.7,10.8v0L407.8,811.6
		C427.5,545.6,572.1,314.2,783.2,175.8z"/>
	<path class="st0" d="M878,122c109.5-52.9,232.3-82.5,362-82.5c135.4,0,263.3,32.3,376.5,89.7l0.1,418.9l-311.5-179.9l0,0l-7.4-4.3
		l-57.7-33.3l0,0L878,122z"/>
</g>
<g id="Text">
	<g id="Fachschaft" transform="matrix(3.30056,0,0,3.87839,-718.973,-1070.24)">
		<text transform="matrix(0.2578 0 0 0.2578 476.2025 472.7854)" class="st1 st2">Fachschaft</text>
	</g>
	<g id="IMP" transform="matrix(1,0,0,1.10997,0,-59.5912)">
		<g transform="matrix(0.897613,0,0,0.897613,46.2704,53.6058)">
			<path class="st0" d="M924.2,854.9l-12.7,263.9l100.2,0.1l12.3-264L924.2,854.9z"/>
			<path class="st0" d="M924.2,854.9l-12.7,263.9l100.2,0.1l12.3-264L924.2,854.9z M926.1,856.6l96.1,0l-12.2,260.5l-96.4-0.1
				L926.1,856.6z"/>
		</g>
		<g transform="matrix(0.897613,0,0,0.897613,46.2704,53.6058)">
			<path class="st0" d="M1087.2,854.9l-26,263.8l79.2,0.1l13.8-187.7l48.9,187.7l82.2,0.1l70.8-188.5l-6.7,188l83.2,0.2l8.3-263.5
				l-126-0.3l-61.8,164.2L1211,854.9L1087.2,854.9z"/>
			<path class="st0" d="M1087.2,854.9l-26,263.8l79.2,0.1l13.8-187.7l48.9,187.7l82.2,0.1l70.8-188.5l-6.7,188l83.2,0.2l8.3-263.5
				l-126-0.3l-61.8,164.2L1211,854.9L1087.2,854.9z M1088.9,856.6l120.6,0.1l41.5,162.8c0.2,0.7,0.9,1.3,1.8,1.3
				c0.9,0,1.6-0.4,1.9-1.2l61.3-163.1l122.7,0.3l-8.2,260.1l-79.4-0.2l6.6-186.3c0-0.8-0.6-1.6-1.6-1.7c-0.9-0.2-1.8,0.3-2.1,1.1
				l-70.3,187.3l-79.3-0.1L1156,930.7c-0.2-0.8-1.1-1.4-2-1.3c-0.9,0.1-1.7,0.7-1.7,1.6l-13.7,186.1l-75.3-0.1L1088.9,856.6z"/>
		</g>
		<g transform="matrix(0.897613,0,0,0.897613,46.2704,53.6058)">
			<path class="st0" d="M1591.9,854l-92.9,1.1l-12.4,263.6l90.9,0.4l7-208.1c80.1-14.1,112.9,61.5,10,54.6l-1.5,54.8
				C1775.6,1049.7,1807.2,853.3,1591.9,854z"/>
			<path class="st0" d="M1591.9,854l-92.9,1.1l-12.4,263.6l90.9,0.4l7-208.1c80.1-14.1,112.9,61.5,10,54.6l-1.5,54.8
				C1775.6,1049.7,1807.2,853.3,1591.9,854z M1591.9,855.7c106.1-0.4,151.6,47.4,147.9,92.1c-3.7,44.3-56,84.9-144.9,71.2l1.4-51.6
				c24.1,1.4,40.7-1.8,51-7.3c7.4-3.9,11.6-9,13-14.5c2.2-8.1-1.7-17.1-10.6-24.4c-12.8-10.4-36-17.2-65.6-12l-1.5,0.3l-7,207.8
				l-87.1-0.4l12.2-260.2L1591.9,855.7z"/>
		</g>
	</g>
</g>
</svg>
